# xmcd CD database file
#
# Track frame offsets:
#	150
#	9922
#	18757
#	32332
#	46315
#	59918
#	71635
#	85302
#	97581
#	109927
#	122453
#	135996
#	148802
#	163305
#	177250
#	191092
#	206659
#	225931
#	239900
#	254609
#	267563
#	279367
#	295240
#	310072
#	320913
#	333179
#
# Disc length: 4608 seconds
#
# Revision: 0
# Processed by: cddbd v1.5.2PL0 Copyright (c) Steve Scherf et al.
# Submitted via: CDex 1.51
#
DISCID=7c11fe1a
DTITLE=Jean Sablon - 100 chansons - CD1
DYEAR=2008
DGENRE=Jazz
TTITLE0=Syracuse
TTITLE1=Merci à vous
TTITLE2=Qui vivra verra
TTITLE3=Reviens
TTITLE4=Vous qui passez sans me voir
TTITLE5=Rien ne va
TTITLE6=Le fils à son père
TTITLE7=Pour deux
TTITLE8=Jamais plus bel été
TTITLE9=Rêverie
TTITLE10=Je tire ma révérence
TTITLE11=Pour vous, j'avais fait cette chanson
TTITLE12=Laura
TTITLE13=Ciel de Paris
TTITLE14=La chanson des rues
TTITLE15=Un seul couvert please James
TTITLE16=Ces petites choses
TTITLE17=C'est le printemps
TTITLE18=Les voyages
TTITLE19=Cigales
TTITLE20=Toi si loin de moi
TTITLE21=Monsieur Hans
TTITLE22=La dame en gris
TTITLE23=Pas bon travailler
TTITLE24=En te quittant Tahiti
TTITLE25=Manha de Carnaval
EXTD=YEAR: 2008
EXTT0=
EXTT1=
EXTT2=
EXTT3=
EXTT4=
EXTT5=
EXTT6=
EXTT7=
EXTT8=
EXTT9=
EXTT10=
EXTT11=
EXTT12=
EXTT13=
EXTT14=
EXTT15=
EXTT16=
EXTT17=
EXTT18=
EXTT19=
EXTT20=
EXTT21=
EXTT22=
EXTT23=
EXTT24=
EXTT25=
PLAYORDER=
